<svg width="31" height="43" viewBox="0 0 31 43" fill="none" xmlns="http://www.w3.org/2000/svg">
<path d="M18.3182 0.0803223H12.6818C11.9036 0.0803223 11.2727 0.651615 11.2727 1.35642V11.5652C11.2727 12.27 11.9036 12.8413 12.6818 12.8413H18.3182C19.8746 12.8413 21.1364 11.6986 21.1364 10.2891V2.63252C21.1364 1.22299 19.8746 0.0803223 18.3182 0.0803223ZM18.3182 10.2891H14.0909V2.63252H18.3182V10.2891Z" fill="#EC1630"/>
<path d="M31 2.63252V0.0803223H23.9545C23.1763 0.0803223 22.5454 0.651615 22.5454 1.35642V12.8413H25.3636V7.73691H31V5.18471H25.3636V2.63252H31Z" fill="#EC1630"/>
<path d="M7.04545 0.0803223H1.40909C0.630832 0.0803223 0 0.651615 0 1.35642V12.8413H2.81818V9.01301H7.04545C8.60188 9.01301 9.86364 7.87034 9.86364 6.46081V2.63252C9.86364 1.22299 8.60188 0.0803223 7.04545 0.0803223ZM7.04545 6.46081H2.81818V2.63252H7.04545V6.46081Z" fill="#EC1630"/>
<path d="M11 42.0803H5.9858V23.7429L0 25.5042V21.6359L10.4621 18.0803H11V42.0803Z" fill="#EC1630"/>
</svg>
