<svg xmlns="http://www.w3.org/2000/svg"
     xmlns:xlink="http://www.w3.org/1999/xlink"
     xmlns:ev="http://www.w3.org/2001/xml-events">
  <symbol id="pdf1" viewBox="0 0 31 43" preserveAspectRatio="xMidYMid">
    <g fill="currentColor">
      <path d="M18.3182 0.0803223H12.6818C11.9036 0.0803223 11.2727 0.651615 11.2727 1.35642V11.5652C11.2727 12.27 11.9036 12.8413 12.6818 12.8413H18.3182C19.8746 12.8413 21.1364 11.6986 21.1364 10.2891V2.63252C21.1364 1.22299 19.8746 0.0803223 18.3182 0.0803223ZM18.3182 10.2891H14.0909V2.63252H18.3182V10.2891Z"/>
      <path d="M31 2.63252V0.0803223H23.9545C23.1763 0.0803223 22.5454 0.651615 22.5454 1.35642V12.8413H25.3636V7.73691H31V5.18471H25.3636V2.63252H31Z"/>
      <path d="M7.04545 0.0803223H1.40909C0.630832 0.0803223 0 0.651615 0 1.35642V12.8413H2.81818V9.01301H7.04545C8.60188 9.01301 9.86364 7.87034 9.86364 6.46081V2.63252C9.86364 1.22299 8.60188 0.0803223 7.04545 0.0803223ZM7.04545 6.46081H2.81818V2.63252H7.04545V6.46081Z"/>
      <path d="M11 42.0803H5.9858V23.7429L0 25.5042V21.6359L10.4621 18.0803H11V42.0803Z"/>
    </g>
  </symbol>

  <symbol id="pdf2" viewBox="0 0 31 43" preserveAspectRatio="xMidYMid">
    <g fill="currentColor">
      <path d="M18.3182 0.5H12.6818C11.9036 0.5 11.2727 1.07129 11.2727 1.7761V11.9849C11.2727 12.6897 11.9036 13.261 12.6818 13.261H18.3182C19.8746 13.261 21.1364 12.1183 21.1364 10.7088V3.0522C21.1364 1.64267 19.8746 0.5 18.3182 0.5ZM18.3182 10.7088H14.0909V3.0522H18.3182V10.7088Z"/>
      <path d="M31 3.0522V0.5H23.9545C23.1763 0.5 22.5454 1.07129 22.5454 1.7761V13.261H25.3636V8.15659H31V5.60439H25.3636V3.0522H31Z"/>
      <path d="M7.04545 0.5H1.40909C0.630832 0.5 0 1.07129 0 1.7761V13.261H2.81818V9.43269H7.04545C8.60188 9.43269 9.86364 8.29002 9.86364 6.88049V3.0522C9.86364 1.64267 8.60188 0.5 7.04545 0.5ZM7.04545 6.88049H2.81818V3.0522H7.04545V6.88049Z"/>
      <path d="M16.8 42.5H0.474391V39.2805L8.17916 31.1179C9.237 29.9688 10.0167 28.9661 10.5184 28.1098C11.031 27.2534 11.2872 26.4404 11.2872 25.6707C11.2872 24.6192 11.0201 23.7954 10.4857 23.1992C9.95131 22.5921 9.18793 22.2886 8.19552 22.2886C7.12678 22.2886 6.2816 22.6572 5.65998 23.3943C5.04927 24.1206 4.74391 25.0799 4.74391 26.2724H0C0 24.8306 0.343525 23.5136 1.03057 22.3211C1.72853 21.1287 2.71003 20.1965 3.97507 19.5244C5.24012 18.8415 6.6742 18.5 8.27731 18.5C10.7311 18.5 12.6341 19.0854 13.9864 20.2561C15.3496 21.4268 16.0312 23.0799 16.0312 25.2154C16.0312 26.3862 15.7258 27.5786 15.1151 28.7927C14.5044 30.0068 13.4574 31.4214 11.9743 33.0366L6.55969 38.7114H16.8V42.5Z"/>
    </g>
  </symbol>

  <symbol id="download" viewBox="0 0 20 23" preserveAspectRatio="xMidYMid">
    <g fill="currentColor">
      <path d="M4.49991 8.83032H8.03563V2.15175C8.03563 1.28432 8.73806 0.580322 9.60706 0.580322C10.4761 0.580322 11.1785 1.28432 11.1785 2.15175V8.83032H14.7142C15.7655 8.83032 16.2888 10.1032 15.5471 10.8417L10.4399 15.9489C10.2105 16.1799 9.90877 16.2946 9.60706 16.2946C9.30534 16.2946 9.00363 16.1799 8.7742 15.9489L3.66706 10.8417C2.92534 10.1032 3.44863 8.83032 4.49991 8.83032Z"/>
      <path d="M17.4642 22.5802H1.7499C0.880895 22.5802 0.178467 21.8762 0.178467 21.0088C0.178467 20.1413 0.880895 19.4373 1.7499 19.4373H17.4642C18.3332 19.4373 19.0356 20.1413 19.0356 21.0088C19.0356 21.8762 18.3332 22.5802 17.4642 22.5802Z"/>
    </g>
  </symbol>

  <symbol id="add" viewBox="0 0 17 17" preserveAspectRatio="xMidYMid">
    <path fill="currentColor" d="M11.0331 6.31617V6.56617H11.2831H16.5V10.4284H11.2831H11.0331V10.6784V16.3303H6.48297V10.6784V10.4284H6.23297H1V6.56617H6.23297H6.48297V6.31617V0.830322H11.0331V6.31617Z"/>
  </symbol>

  <symbol id="edit" viewBox="0 0 20 19" preserveAspectRatio="xMidYMid">
    <path fill="currentColor" d="M17.884 1.77177C17.0023 0.890092 15.851 0.445569 14.6912 0.421301C13.4707 0.394593 12.2429 0.836626 11.3199 1.76083L3.09799 9.98271C1.89811 11.1875 1.23742 12.7857 1.23742 14.4835L1.23742 17.2038C1.23742 17.8754 1.78028 18.4183 2.45186 18.4183L5.17222 18.4183C6.87004 18.4183 8.46826 17.7576 9.6742 16.5565L17.8851 8.34553C19.6947 6.53487 19.6947 3.58375 17.884 1.77177ZM7.95826 14.8381C7.21379 15.5802 6.22279 15.9894 5.17232 15.9894L3.66634 15.9894L3.66634 14.4835C3.66634 13.433 4.07561 12.442 4.81642 11.6987L10.2365 6.27862L13.3771 9.41919L7.95826 14.8381ZM16.1668 6.62959L15.0944 7.70198L11.9538 4.56141L13.0261 3.48907C13.8933 2.62195 15.302 2.62439 16.1667 3.48907C17.0314 4.35492 17.0314 5.76369 16.1668 6.62959Z"/>
  </symbol>

  <symbol id="upload1" viewBox="0 0 11 24" preserveAspectRatio="xMidYMid">
    <path fill="currentColor" d="M11 24H5.9858V5.66255L0 7.42387V3.55556L10.4621 0H11V24Z"/>
  </symbol>

  <symbol id="upload2" viewBox="0 0 17 24" preserveAspectRatio="xMidYMid">
    <path fill="currentColor" d="M16.8 24H0.474391V20.7805L8.17916 12.6179C9.237 11.4688 10.0167 10.4661 10.5184 9.60976C11.031 8.75339 11.2872 7.94038 11.2872 7.17073C11.2872 6.11924 11.0201 5.29539 10.4857 4.69919C9.95131 4.09214 9.18793 3.78862 8.19552 3.78862C7.12678 3.78862 6.2816 4.15718 5.65998 4.89431C5.04927 5.6206 4.74391 6.57995 4.74391 7.77236H0C0 6.33062 0.343525 5.01355 1.03057 3.82114C1.72853 2.62873 2.71003 1.69648 3.97507 1.02439C5.24012 0.341463 6.6742 0 8.27731 0C10.7311 0 12.6341 0.585366 13.9864 1.7561C15.3496 2.92683 16.0312 4.57995 16.0312 6.71545C16.0312 7.88618 15.7258 9.07859 15.1151 10.2927C14.5044 11.5068 13.4574 12.9214 11.9743 14.5366L6.55969 20.2114H16.8V24Z"/>
  </symbol>

  <symbol id="uploaded" viewBox="0 0 24 23" preserveAspectRatio="xMidYMid">
    <path fill="currentColor" d="M11.1435 21.4966C10.0835 22.8345 8.3636 22.8345 7.30413 21.4966L1.35553 13.9885C0.295551 12.6513 0.295551 10.4805 1.35553 9.14323C2.41501 7.80535 4.13492 7.80535 5.19491 9.14323L8.7391 13.6159C9.00665 13.953 9.44098 13.953 9.70905 13.6159L19.3057 1.5034C20.3652 0.165532 22.0851 0.165532 23.1451 1.5034C23.6541 2.14587 23.94 3.01755 23.94 3.92604C23.94 4.83453 23.6541 5.70621 23.1451 6.34867L11.1435 21.4966Z"/>
  </symbol>
</svg>