<svg width="41" height="24" viewBox="0 0 41 24" fill="none" xmlns="http://www.w3.org/2000/svg">
<path d="M11 24H5.9858V5.66255L0 7.42387V3.55556L10.4621 0H11V24Z" fill="#EC1630"/>
<path d="M28.1435 21.4966C27.0835 22.8345 25.3636 22.8345 24.3041 21.4966L18.3555 13.9885C17.2956 12.6513 17.2956 10.4805 18.3555 9.14323C19.415 7.80535 21.1349 7.80535 22.1949 9.14323L25.7391 13.6159C26.0067 13.953 26.441 13.953 26.709 13.6159L36.3057 1.5034C37.3652 0.165532 39.0851 0.165532 40.1451 1.5034C40.6541 2.14587 40.94 3.01755 40.94 3.92604C40.94 4.83453 40.6541 5.70621 40.1451 6.34867L28.1435 21.4966Z" fill="#EC1630"/>
</svg>
